<svg width="14" height="20" viewBox="0 0 14 20" fill="none" xmlns="http://www.w3.org/2000/svg">
<path d="M7.0143 0H6.98576C3.53179 0 0.721878 2.80898 0.721878 6.26162C0.721878 8.52482 1.75258 11.5117 3.78534 15.1394C5.29242 17.8289 6.82062 19.8888 6.83593 19.9092C6.87847 19.9664 6.94552 20 7.01656 20C7.01858 20 7.02064 20 7.02266 20C7.09595 19.9979 7.16361 19.9604 7.20427 19.8993C7.21934 19.8765 8.73666 17.5852 10.2335 14.7826C12.2539 11 13.2783 8.13305 13.2783 6.26162C13.2781 2.80893 10.4682 0 7.0143 0ZM9.90563 6.41464C9.90563 8.01685 8.60219 9.32025 6.99998 9.32025C5.39782 9.32025 4.09438 8.0168 4.09438 6.41464C4.09438 4.81248 5.39782 3.50904 6.99998 3.50904C8.60219 3.50904 9.90563 4.81248 9.90563 6.41464Z" fill="#FF2054"/>
</svg>
