<svg width="20" height="20" viewBox="0 0 20 20" fill="none" xmlns="http://www.w3.org/2000/svg">
<path d="M3.37848 7.07031H1.0816V8.24219H3.37848V7.07031Z" fill="#FF2054"/>
<path d="M3.37848 11.7578H1.0816V12.9297H3.37848V11.7578Z" fill="#FF2054"/>
<path d="M3.37852 9.41406H0V10.5859H3.37852V9.41406Z" fill="#FF2054"/>
<path d="M12.2751 2.2749C8.01569 2.2749 4.55034 5.74025 4.55034 9.99971C4.55034 14.2592 8.01565 17.7245 12.2751 17.7245C16.5346 17.7245 20 14.2592 20 9.99971C20 5.74025 16.5346 2.2749 12.2751 2.2749ZM12.2751 16.5526C8.66186 16.5526 5.72221 13.613 5.72221 9.99971C5.72221 6.38643 8.66186 3.44678 12.2751 3.44678C15.8885 3.44678 18.8281 6.38643 18.8281 9.99971C18.8281 13.613 15.8885 16.5526 12.2751 16.5526Z" fill="#FF2054"/>
<path d="M12.6535 10.2909V6.50586H11.4816V10.9104L14.5015 12.9683L15.1614 11.9999L12.6535 10.2909Z" fill="#FF2054"/>
</svg>
