<svg width="50" height="50" viewBox="0 0 50 50" fill="none" xmlns="http://www.w3.org/2000/svg">
<g clip-path="url(#clip0)">
<path d="M25 50C11.2152 50 0 38.7848 0 25C0 11.2152 11.2152 0 25 0C38.7848 0 50 11.2152 50 25C50 38.7848 38.7848 50 25 50Z" fill="#C3E678"/>
<path d="M36.6667 41.6668C22.8819 41.6668 11.6667 30.4516 11.6667 16.6668C11.6667 10.8966 13.6509 5.5916 16.9471 1.35596C7.10625 4.71797 0 14.0353 0 25.0001C0 38.7849 11.2152 50.0001 25 50.0001C33.0146 50.0001 40.1415 46.194 44.7196 40.3109C42.1887 41.1757 39.4865 41.6668 36.6667 41.6668Z" fill="#A5D76E"/>
<path d="M19.8275 37.9315C19.3863 37.9315 18.9449 37.7631 18.6085 37.4264L8.26364 27.0815C7.5901 26.4085 7.5901 25.3166 8.26364 24.6434C8.93629 23.9699 10.0291 23.9699 10.7017 24.6434L19.8276 33.7688L37.5741 16.0227C38.2467 15.3492 39.3395 15.3492 40.0122 16.0227C40.6857 16.6958 40.6857 17.7877 40.0122 18.4608L21.0465 37.4264C20.7102 37.7631 20.2687 37.9315 19.8275 37.9315Z" fill="white"/>
</g>
<defs>
<clipPath id="clip0">
<rect width="50" height="50" fill="white"/>
</clipPath>
</defs>
</svg>
