<svg width="26" height="26" viewBox="0 0 26 26" fill="none" xmlns="http://www.w3.org/2000/svg">
<path d="M4.392 9.19141H1.40607V10.7148H4.392V9.19141Z" fill="#FF2054"/>
<path d="M4.392 15.2852H1.40607V16.8086H4.392V15.2852Z" fill="#FF2054"/>
<path d="M4.39207 12.2383H0V13.7617H4.39207V12.2383Z" fill="#FF2054"/>
<path d="M15.9577 2.95752C10.4204 2.95752 5.91547 7.46248 5.91547 12.9998C5.91547 18.5371 10.4204 23.042 15.9577 23.042C21.4951 23.042 26 18.5371 26 12.9998C26 7.46248 21.4951 2.95752 15.9577 2.95752ZM15.9577 21.5186C11.2604 21.5186 7.4389 17.697 7.4389 12.9998C7.4389 8.3025 11.2604 4.48096 15.9577 4.48096C20.655 4.48096 24.4766 8.3025 24.4766 12.9998C24.4766 17.697 20.655 21.5186 15.9577 21.5186Z" fill="#FF2054"/>
<path d="M16.4496 13.3786V8.45801H14.9261V14.1839L18.8519 16.8592L19.7099 15.6003L16.4496 13.3786Z" fill="#FF2054"/>
</svg>
