<svg width="418" height="92" viewBox="0 0 418 92" fill="none" xmlns="http://www.w3.org/2000/svg">
<circle cx="46" cy="46" r="46" fill="#FF3C8A"/>
<path d="M53.5395 91L18 55C35.3892 44.6683 43.4622 36.4717 55 18L91 54.5C88.1184 70.1886 74.6711 87.7982 53.5395 91Z" fill="url(#paint0_linear)"/>
<g filter="url(#filter0_d)">
<path fill-rule="evenodd" clip-rule="evenodd" d="M54.9824 17.8887H37.1288V37.0554H18V54.9443H37.1288V74.1109H54.9824V54.9443H74.1111V37.0554H54.9824V17.8887Z" fill="white"/>
</g>
<path d="M186.204 29.0405C186.688 29.0405 187.11 28.894 187.471 28.6011C187.833 28.3081 188.033 27.9419 188.072 27.5024H189.354C189.329 27.9565 189.173 28.3887 188.885 28.7988C188.597 29.209 188.211 29.5361 187.728 29.7803C187.249 30.0244 186.741 30.1465 186.204 30.1465C185.125 30.1465 184.266 29.7876 183.626 29.0698C182.991 28.3472 182.674 27.3608 182.674 26.1108V25.8838C182.674 25.1123 182.815 24.4263 183.099 23.8257C183.382 23.2251 183.787 22.7588 184.314 22.4268C184.847 22.0947 185.474 21.9287 186.197 21.9287C187.085 21.9287 187.823 22.1948 188.409 22.7271C189 23.2593 189.314 23.9502 189.354 24.7998H188.072C188.033 24.2871 187.837 23.8672 187.486 23.54C187.139 23.208 186.709 23.042 186.197 23.042C185.508 23.042 184.974 23.291 184.593 23.7891C184.217 24.2822 184.029 24.9976 184.029 25.9351V26.1914C184.029 27.1045 184.217 27.8076 184.593 28.3008C184.969 28.7939 185.506 29.0405 186.204 29.0405ZM194.166 30.1465C193.091 30.1465 192.217 29.7949 191.543 29.0918C190.87 28.3838 190.533 27.439 190.533 26.2573V26.0083C190.533 25.2222 190.682 24.5215 190.979 23.9062C191.282 23.2861 191.702 22.8027 192.239 22.4561C192.781 22.1045 193.367 21.9287 193.997 21.9287C195.027 21.9287 195.828 22.2681 196.399 22.9468C196.971 23.6255 197.256 24.5972 197.256 25.8618V26.4258H191.888C191.907 27.207 192.134 27.8394 192.569 28.3228C193.008 28.8013 193.565 29.0405 194.239 29.0405C194.717 29.0405 195.123 28.9429 195.455 28.7476C195.787 28.5522 196.077 28.2935 196.326 27.9712L197.154 28.6157C196.49 29.6362 195.494 30.1465 194.166 30.1465ZM193.997 23.042C193.45 23.042 192.991 23.2422 192.62 23.6426C192.249 24.0381 192.02 24.5947 191.932 25.3125H195.901V25.21C195.862 24.5215 195.677 23.9893 195.345 23.6133C195.013 23.2324 194.563 23.042 193.997 23.042ZM204.632 23.1738H201.973V30H200.618V23.1738H198.011V22.0752H204.632V23.1738ZM207.43 24.8071H209.488C210.386 24.8169 211.097 25.0513 211.619 25.5103C212.142 25.9692 212.403 26.5918 212.403 27.3779C212.403 28.1689 212.134 28.8037 211.597 29.2822C211.06 29.7607 210.337 30 209.429 30H206.075V22.0752H207.43V24.8071ZM207.43 25.9131V28.894H209.444C209.952 28.894 210.345 28.7646 210.623 28.5059C210.901 28.2422 211.041 27.8833 211.041 27.4292C211.041 26.9897 210.904 26.6309 210.63 26.3525C210.362 26.0693 209.983 25.9229 209.495 25.9131H207.43ZM222.378 28.2056L225.074 22.0752H226.766V30H225.411V24.2358L222.847 30H221.91L219.295 24.1113V30H217.94V22.0752H219.698L222.378 28.2056ZM232.237 30.1465C231.163 30.1465 230.289 29.7949 229.615 29.0918C228.941 28.3838 228.604 27.439 228.604 26.2573V26.0083C228.604 25.2222 228.753 24.5215 229.051 23.9062C229.354 23.2861 229.773 22.8027 230.311 22.4561C230.853 22.1045 231.438 21.9287 232.068 21.9287C233.099 21.9287 233.899 22.2681 234.471 22.9468C235.042 23.6255 235.328 24.5972 235.328 25.8618V26.4258H229.959C229.979 27.207 230.206 27.8394 230.64 28.3228C231.08 28.8013 231.636 29.0405 232.31 29.0405C232.789 29.0405 233.194 28.9429 233.526 28.7476C233.858 28.5522 234.148 28.2935 234.397 27.9712L235.225 28.6157C234.561 29.6362 233.565 30.1465 232.237 30.1465ZM232.068 23.042C231.521 23.042 231.062 23.2422 230.691 23.6426C230.32 24.0381 230.091 24.5947 230.003 25.3125H233.973V25.21C233.934 24.5215 233.748 23.9893 233.416 23.6133C233.084 23.2324 232.635 23.042 232.068 23.042ZM236.836 28.894L237.305 28.3154C237.833 27.6318 238.133 26.6064 238.206 25.2393L238.331 22.0752H243.436V28.894H244.454V32.3291H243.099V30H237.569V32.3291H236.214L236.221 28.894H236.836ZM238.44 28.894H242.081V23.3276H239.642L239.561 25.2173C239.478 26.7944 239.104 28.02 238.44 28.894ZM251.082 22.0752H252.437V30H251.082V24.2212L247.427 30H246.072V22.0752H247.427V27.8613L251.082 22.0752ZM254.729 22.0752H256.092V28.894H259.739V22.0752H261.094V28.894H262.039L261.907 32.3511H260.691V30H254.729V22.0752ZM268.631 22.0752H269.986V30H268.631V24.2212L264.976 30H263.621V22.0752H264.976V27.8613L268.631 22.0752ZM278.636 30H277.281V26.6162H273.641V30H272.278V22.0752H273.641V25.5103H277.281V22.0752H278.636V30ZM283.997 29.0405C284.48 29.0405 284.903 28.894 285.264 28.6011C285.625 28.3081 285.826 27.9419 285.865 27.5024H287.146C287.122 27.9565 286.966 28.3887 286.678 28.7988C286.39 29.209 286.004 29.5361 285.521 29.7803C285.042 30.0244 284.534 30.1465 283.997 30.1465C282.918 30.1465 282.059 29.7876 281.419 29.0698C280.784 28.3472 280.467 27.3608 280.467 26.1108V25.8838C280.467 25.1123 280.608 24.4263 280.892 23.8257C281.175 23.2251 281.58 22.7588 282.107 22.4268C282.64 22.0947 283.267 21.9287 283.99 21.9287C284.878 21.9287 285.616 22.1948 286.202 22.7271C286.792 23.2593 287.107 23.9502 287.146 24.7998H285.865C285.826 24.2871 285.63 23.8672 285.279 23.54C284.932 23.208 284.502 23.042 283.99 23.042C283.301 23.042 282.767 23.291 282.386 23.7891C282.01 24.2822 281.822 24.9976 281.822 25.9351V26.1914C281.822 27.1045 282.01 27.8076 282.386 28.3008C282.762 28.7939 283.299 29.0405 283.997 29.0405ZM291.138 26.6235H290.149V30H288.787V22.0752H290.149V25.4297H291.036L293.702 22.0752H295.342L292.208 25.8838L295.606 30H293.885L291.138 26.6235ZM301.897 22.0752H303.252V30H301.897V24.2212L298.243 30H296.888V22.0752H298.243V27.8613L301.897 22.0752ZM308.086 24.9683L309.844 22.0752H311.426L308.833 25.9937L311.507 30H309.939L308.108 27.0337L306.277 30H304.703L307.376 25.9937L304.783 22.0752H306.351L308.086 24.9683ZM319.058 26.6235H318.069V30H316.707V22.0752H318.069V25.4297H318.956L321.622 22.0752H323.262L320.127 25.8838L323.526 30H321.805L319.058 26.6235ZM331.187 22.0752V30H329.825V23.1958H327.129L326.968 26.1621C326.88 27.5244 326.651 28.4985 326.28 29.0845C325.914 29.6704 325.33 29.9756 324.529 30H323.987V28.8062L324.375 28.7769C324.815 28.728 325.13 28.4741 325.32 28.0151C325.511 27.5562 325.633 26.7065 325.687 25.4663L325.833 22.0752H331.187ZM338.489 22.0752H339.844V30H338.489V24.2212L334.834 30H333.479V22.0752H334.834V27.8613L338.489 22.0752ZM348.494 30H347.139V26.6162H343.499V30H342.137V22.0752H343.499V25.5103H347.139V22.0752H348.494V30ZM355.804 22.0752H357.159V30H355.804V24.2212L352.149 30H350.794V22.0752H352.149V27.8613L355.804 22.0752ZM361.802 26.6235H360.813V30H359.451V22.0752H360.813V25.4297H361.7L364.366 22.0752H366.006L362.872 25.8838L366.27 30H364.549L361.802 26.6235Z" fill="#ED488A"/>
<path d="M209.36 40.8V66H203.6V51.348L197.084 62.04H196.436L189.92 51.348V66H184.16V40.8H189.92L196.76 51.996L203.6 40.8H209.36ZM219.811 60.456H229.891V66H214.051V40.8H229.711V46.344H219.811V50.52H228.811V55.992H219.811V60.456ZM253.301 60.456H256.001V70.824H250.241V66H237.641V70.824H231.881V60.456H234.437C235.757 58.56 236.417 55.776 236.417 52.104V40.8H253.301V60.456ZM240.557 60.456H247.541V46.2H242.177V52.176C242.177 55.752 241.637 58.512 240.557 60.456Z" fill="#FF3C8A"/>
<path d="M278.5 60.456H281.2V70.824H275.44V66H259.42V40.8H265.18V60.456H272.74V40.8H278.5V60.456ZM290.395 60.456H300.475V66H284.635V40.8H300.295V46.344H290.395V50.52H299.395V55.992H290.395V60.456ZM317.765 40.8H323.525V66H317.765V55.992H309.845V66H304.085V40.8H309.845V50.448H317.765V40.8ZM345.131 40.8V46.344H338.651V66H332.891V46.344H326.411V40.8H345.131ZM357.552 40.8C360.024 40.8 362.112 41.64 363.816 43.32C365.52 45 366.372 47.04 366.372 49.44C366.372 51.84 365.52 53.88 363.816 55.56C362.112 57.24 360.024 58.08 357.552 58.08H353.772V66H348.012V40.8H357.552ZM357.552 52.68C358.44 52.68 359.172 52.368 359.748 51.744C360.324 51.12 360.612 50.352 360.612 49.44C360.612 48.528 360.324 47.76 359.748 47.136C359.172 46.512 358.44 46.2 357.552 46.2H353.772V52.68H357.552ZM390.743 62.724C388.199 65.244 385.103 66.504 381.455 66.504C377.807 66.504 374.711 65.244 372.167 62.724C369.623 60.204 368.351 57.096 368.351 53.4C368.351 49.704 369.623 46.596 372.167 44.076C374.711 41.556 377.807 40.296 381.455 40.296C385.103 40.296 388.199 41.556 390.743 44.076C393.287 46.596 394.559 49.704 394.559 53.4C394.559 57.096 393.287 60.204 390.743 62.724ZM376.199 58.8C377.615 60.192 379.367 60.888 381.455 60.888C383.543 60.888 385.283 60.192 386.675 58.8C388.091 57.408 388.799 55.608 388.799 53.4C388.799 51.192 388.091 49.392 386.675 48C385.283 46.608 383.543 45.912 381.455 45.912C379.367 45.912 377.615 46.608 376.199 48C374.807 49.392 374.111 51.192 374.111 53.4C374.111 55.608 374.807 57.408 376.199 58.8ZM413.786 52.932C415.85 54.252 416.882 56.148 416.882 58.62C416.882 60.804 416.102 62.58 414.542 63.948C412.982 65.316 411.05 66 408.746 66H398.162V40.8H408.026C410.282 40.8 412.166 41.472 413.678 42.816C415.214 44.136 415.982 45.864 415.982 48C415.982 50.016 415.25 51.66 413.786 52.932ZM408.026 46.2H403.922V50.664H408.026C408.674 50.664 409.202 50.46 409.61 50.052C410.018 49.62 410.222 49.08 410.222 48.432C410.222 47.784 410.018 47.256 409.61 46.848C409.202 46.416 408.674 46.2 408.026 46.2ZM408.746 60.6C409.466 60.6 410.042 60.384 410.474 59.952C410.906 59.496 411.122 58.908 411.122 58.188C411.122 57.468 410.906 56.892 410.474 56.46C410.042 56.004 409.466 55.776 408.746 55.776H403.922V60.6H408.746Z" fill="#42E3B4"/>
<path d="M104.755 67V60.305L120.29 44.315C123.757 40.675 125.49 37.6417 125.49 35.215C125.49 33.4383 124.927 32.0083 123.8 30.925C122.717 29.8417 121.308 29.3 119.575 29.3C116.152 29.3 113.617 31.0767 111.97 34.63L104.43 30.21C105.86 27.09 107.918 24.7067 110.605 23.06C113.292 21.4133 116.238 20.59 119.445 20.59C123.562 20.59 127.093 21.89 130.04 24.49C132.987 27.0467 134.46 30.5133 134.46 34.89C134.46 39.6133 131.968 44.4667 126.985 49.45L118.08 58.355H135.175V67H104.755ZM166.334 43.34C170.537 45.8533 172.639 49.515 172.639 54.325C172.639 58.5283 171.166 61.8433 168.219 64.27C165.316 66.6967 161.351 67.91 156.324 67.91C151.254 67.91 147.267 66.6967 144.364 64.27C141.461 61.8433 140.009 58.5283 140.009 54.325C140.009 49.515 142.089 45.8533 146.249 43.34C143.086 41.0433 141.504 37.9017 141.504 33.915C141.504 29.7117 142.912 26.44 145.729 24.1C148.589 21.76 152.121 20.59 156.324 20.59C160.527 20.59 164.037 21.76 166.854 24.1C169.671 26.44 171.079 29.7117 171.079 33.915C171.079 37.945 169.497 41.0867 166.334 43.34ZM160.549 30.47C159.466 29.5167 158.057 29.04 156.324 29.04C154.591 29.04 153.182 29.5167 152.099 30.47C151.016 31.4233 150.474 32.7233 150.474 34.37C150.474 36.0167 151.016 37.3383 152.099 38.335C153.182 39.2883 154.591 39.765 156.324 39.765C158.057 39.765 159.466 39.2883 160.549 38.335C161.632 37.3383 162.174 36.0167 162.174 34.37C162.174 32.7233 161.632 31.4233 160.549 30.47ZM150.929 57.835C152.316 58.9183 154.114 59.46 156.324 59.46C158.534 59.46 160.311 58.9183 161.654 57.835C163.041 56.7083 163.734 55.1483 163.734 53.155C163.734 51.205 163.041 49.6883 161.654 48.605C160.311 47.4783 158.534 46.915 156.324 46.915C154.114 46.915 152.316 47.4783 150.929 48.605C149.586 49.6883 148.914 51.205 148.914 53.155C148.914 55.1483 149.586 56.7083 150.929 57.835Z" fill="#FF3C8A"/>
<defs>
<filter id="filter0_d" x="14" y="17.8887" width="64.1111" height="64.2222" filterUnits="userSpaceOnUse" color-interpolation-filters="sRGB">
<feFlood flood-opacity="0" result="BackgroundImageFix"/>
<feColorMatrix in="SourceAlpha" type="matrix" values="0 0 0 0 0 0 0 0 0 0 0 0 0 0 0 0 0 0 127 0"/>
<feOffset dy="4"/>
<feGaussianBlur stdDeviation="2"/>
<feColorMatrix type="matrix" values="0 0 0 0 0.770833 0 0 0 0 0.134896 0 0 0 0 0.389271 0 0 0 1 0"/>
<feBlend mode="normal" in2="BackgroundImageFix" result="effect1_dropShadow"/>
<feBlend mode="normal" in="SourceGraphic" in2="effect1_dropShadow" result="shape"/>
</filter>
<linearGradient id="paint0_linear" x1="75.9518" y1="80.114" x2="39.4518" y2="37.8509" gradientUnits="userSpaceOnUse">
<stop stop-color="#C52263"/>
<stop offset="1" stop-color="#C52263"/>
</linearGradient>
</defs>
</svg>
