<svg width="60" height="60" viewBox="0 0 60 60" fill="none" xmlns="http://www.w3.org/2000/svg">
<path d="M30 60C46.5685 60 60 46.5685 60 30C60 13.4315 46.5685 0 30 0C13.4315 0 0 13.4315 0 30C0 46.5685 13.4315 60 30 60Z" fill="#FF5B62"/>
<path d="M27.6354 23.6752C29.0953 24.1783 30.5556 24.1364 32.0155 23.6752C33.22 23.6752 33.22 27.2474 32.0155 27.2474H27.6354C26.4309 27.2474 26.4964 23.283 27.6354 23.6752Z" fill="#FEFEFE"/>
<path d="M27.6354 20.8686C29.0953 21.3714 30.5556 21.3297 32.0155 20.8686C33.22 20.8686 33.22 24.4407 32.0155 24.4407H27.6354C26.4309 24.4408 26.4964 20.4765 27.6354 20.8686Z" fill="#FEFEFE"/>
<path d="M27.6354 18.0619C29.0953 18.565 30.5556 18.5231 32.0155 18.0619C33.22 18.0619 33.22 21.6341 32.0155 21.6341H27.6354C26.4309 21.6342 26.4964 17.6698 27.6354 18.0619Z" fill="#FEFEFE"/>
<path d="M27.6354 15.2553C29.0953 15.7582 30.5556 15.7164 32.0155 15.2553C33.22 15.2553 33.22 18.8274 32.0155 18.8274H27.6354C26.4309 18.8275 26.4964 14.8632 27.6354 15.2553Z" fill="#FEFEFE"/>
<path d="M27.6354 12.4487C29.0953 12.9518 30.5556 12.9098 32.0155 12.4487C33.22 12.4487 33.22 16.0208 32.0155 16.0208H27.6354C26.4309 16.0208 26.4964 12.0566 27.6354 12.4487Z" fill="#FEFEFE"/>
<path d="M27.6354 9.64252C29.0953 10.1454 30.5556 10.1037 32.0155 9.64252C33.22 9.64252 33.22 13.2146 32.0155 13.2146H27.6354C26.4309 13.2146 26.4964 9.25041 27.6354 9.64252Z" fill="#FEFEFE"/>
<path d="M27.6354 6.83591C29.0953 7.33899 30.5556 7.29704 32.0155 6.83591C33.22 6.83591 33.22 10.408 32.0155 10.408H27.6354C26.4309 10.4079 26.4964 6.44356 27.6354 6.83591Z" fill="#FEFEFE"/>
<path d="M32.8661 7.98698C32.7101 8.18291 32.5095 8.30303 32.2637 8.30303H27.3845C27.1403 8.30303 26.9431 8.17178 26.7915 7.95944C26.8342 7.63541 26.915 7.34397 27.0334 7.13525C27.1768 7.41815 27.3767 7.60131 27.6354 7.60131H32.0155C32.2602 7.60131 32.4553 7.45377 32.6007 7.21857C32.7266 7.42201 32.8148 7.69119 32.8664 7.98698H32.8661Z" fill="#EEF3F7"/>
<path d="M35.0282 28.9797C36.6514 32.7841 40.4071 32.1687 39.9395 33.6572C39.4718 35.1457 39.0466 36.2937 37.3033 35.188C35.7933 34.2312 31.4993 32.9931 31.0027 30.5696H29.4599C28.9632 32.9931 24.6692 34.2312 23.1593 35.188C21.416 36.2937 20.9904 35.1457 20.5228 33.6572C20.0551 32.1687 23.8112 32.7841 25.4341 28.9797C25.5431 28.7244 25.6951 28.509 25.8763 28.333C25.8319 27.0349 26.2205 25.7032 27.0039 25.9732C28.8824 26.6204 30.7615 26.5664 32.6399 25.9732C33.3221 25.9732 33.7038 26.8633 33.7855 27.86C34.3165 28.0259 34.7817 28.4022 35.0282 28.9797Z" fill="#FEFEFE"/>
<path d="M27.6354 4.02927C29.0953 4.53212 30.5556 4.4904 32.0155 4.02927C33.22 4.02927 33.22 7.60138 32.0155 7.60138H27.6354C26.4309 7.60127 26.4964 3.63692 27.6354 4.02927Z" fill="#FEFEFE"/>
<path d="M32.8661 10.7936C32.7101 10.9896 32.5095 11.1097 32.2637 11.1097H27.3845C27.1403 11.1097 26.9431 10.9782 26.7915 10.7661C26.8342 10.4421 26.915 10.1506 27.0334 9.94189C27.1768 10.2248 27.3767 10.408 27.6354 10.408H32.0155C32.2602 10.408 32.4553 10.2604 32.6007 10.0252C32.7266 10.2287 32.8148 10.4978 32.8664 10.7936H32.8661Z" fill="#EEF3F7"/>
<path d="M32.8661 13.5998C32.7101 13.7957 32.5095 13.9158 32.2637 13.9158H27.3845C27.1403 13.9158 26.9431 13.7843 26.7915 13.5722C26.8342 13.2482 26.915 12.9568 27.0334 12.748C27.1768 13.0309 27.3767 13.2141 27.6354 13.2141H32.0155C32.2602 13.2141 32.4553 13.0666 32.6007 12.8314C32.7266 13.0348 32.8148 13.304 32.8664 13.5998H32.8661Z" fill="#EEF3F7"/>
<path d="M32.8661 16.4064C32.7101 16.6023 32.5095 16.7225 32.2637 16.7225H27.3845C27.1403 16.7225 26.9431 16.591 26.7915 16.3789C26.8342 16.0548 26.915 15.7634 27.0334 15.5547C27.1768 15.8376 27.3767 16.0207 27.6354 16.0207H32.0155C32.2602 16.0207 32.4553 15.8732 32.6007 15.638C32.7266 15.8414 32.8148 16.1106 32.8664 16.4064H32.8661Z" fill="#EEF3F7"/>
<path d="M32.8661 19.2131C32.7101 19.409 32.5095 19.5291 32.2637 19.5291H27.3845C27.1403 19.5291 26.9431 19.3976 26.7915 19.1855C26.8342 18.8615 26.915 18.57 27.0334 18.3613C27.1768 18.6442 27.3767 18.8274 27.6354 18.8274H32.0155C32.2602 18.8274 32.4553 18.6798 32.6007 18.4447C32.7266 18.6481 32.8148 18.9173 32.8664 19.2131H32.8661Z" fill="#EEF3F7"/>
<path d="M32.8661 22.0192C32.7101 22.2151 32.5095 22.3353 32.2637 22.3353H27.3845C27.1403 22.3353 26.9431 22.204 26.7915 21.9917C26.8342 21.6676 26.915 21.3762 27.0334 21.1675C27.1768 21.4504 27.3767 21.6335 27.6354 21.6335H32.0155C32.2602 21.6335 32.4553 21.486 32.6007 21.2508C32.7266 21.4542 32.8148 21.7234 32.8664 22.0192H32.8661Z" fill="#EEF3F7"/>
<path d="M32.8661 24.8254C32.7101 25.0213 32.5095 25.1414 32.2637 25.1414H27.3845C27.1403 25.1414 26.9431 25.0099 26.7915 24.7978C26.8342 24.4738 26.915 24.1823 27.0334 23.9736C27.1768 24.2565 27.3767 24.4397 27.6354 24.4397H32.0155C32.2602 24.4397 32.4553 24.2921 32.6007 24.057C32.7266 24.2604 32.8148 24.5296 32.8664 24.8254H32.8661Z" fill="#EEF3F7"/>
<path d="M39.3104 35.1593C38.9196 35.704 38.3482 35.8512 37.3032 35.1886C35.7933 34.2315 31.4993 32.9934 31.0026 30.57H29.4599C28.9632 32.9934 24.6692 34.2315 23.1592 35.1886C22.1143 35.8514 21.5431 35.704 21.1524 35.1593C21.4734 34.8826 22.1084 34.9032 22.6658 34.7319C23.616 34.4394 28.3855 31.7166 28.824 31.0955C29.2625 30.474 29.0251 28.6284 29.0251 28.6284C29.3176 28.9025 29.4997 29.9717 29.4997 29.9717L30.2312 29.9805L30.9627 29.9717C30.9627 29.9717 31.1451 28.9026 31.4373 28.6284C31.4373 28.6284 31.1999 30.4742 31.6384 31.0955C32.0769 31.7169 36.8463 34.4397 37.7966 34.7319C38.354 34.9032 38.989 34.8823 39.31 35.1593H39.3104Z" fill="#EEF3F7"/>
<path d="M25.7392 21.3861C25.7392 21.3861 25.7156 21.3132 25.6645 21.1982C25.4507 20.7168 24.7512 19.5001 23.2691 19.8506C21.4331 20.2844 12.237 25.4579 10.2673 29.2964C8.29776 33.1351 8.83178 36.9905 8.83178 36.9905C8.83178 36.9905 5.32599 42.5651 5.32599 49.9753C5.32599 57.3856 6.99486 58.2533 8.12994 58.8544C9.26479 59.4554 12.4026 58.7877 14.9395 57.5859C17.4764 56.3842 17.6099 56.2506 17.6099 56.2506C20.3655 57.5864 25.1434 57.2579 24.5193 53.5141C24.5193 53.5141 27.5235 50.5766 27.7906 47.9395C28.0575 45.3027 27.023 42.2315 27.023 42.2315C27.023 42.2315 28.8917 40.2628 28.8917 37.0917C28.8917 33.9206 26.2549 34.3211 25.6206 29.3811C24.9864 24.4408 26.3213 22.772 25.7397 21.3859L25.7392 21.3861Z" fill="#FAD24D"/>
<path d="M17.6289 56.26C20.3874 57.5853 25.142 57.2498 24.5192 53.5144C24.5192 53.5144 27.5234 50.5769 27.7905 47.9398C28.0575 45.3031 27.0229 42.2318 27.0229 42.2318C27.0229 42.2318 28.8916 40.2632 28.8916 37.0921C28.8916 36.4487 28.7831 35.9521 28.6049 35.5283L28.4728 35.7091C28.7055 38.4438 27.5597 40.9319 26.0973 41.6667C27.4046 46.5946 27.2687 49.0223 23.5755 52.6308C23.5755 52.6308 23.6122 55.7376 21.6384 56.2128C19.6646 56.688 17.3229 55.7584 17.3229 55.7584L17.6294 56.2602L17.6289 56.26Z" fill="#EDB937"/>
<path d="M34.2608 21.3861C34.2608 21.3861 34.2844 21.3132 34.3355 21.1982C34.5493 20.7168 35.2488 19.5001 36.7309 19.8506C38.5669 20.2844 47.763 25.4579 49.7327 29.2964C51.7022 33.1351 51.1682 36.9905 51.1682 36.9905C51.1682 36.9905 54.6739 42.5651 54.6739 49.9751C54.6739 57.3855 53.005 58.2532 51.8699 58.8542C50.7351 59.4553 47.5973 58.7876 45.0604 57.5858C42.5235 56.384 42.39 56.2505 42.39 56.2505C42.39 56.2505 37.9839 58.3867 36.0478 55.7164C36.0478 55.7164 35.2135 55.1164 35.4806 53.514C35.4806 53.514 32.4764 50.5764 32.2093 47.9394C31.9424 45.3026 32.9769 42.2314 32.9769 42.2314C32.9769 42.2314 31.1082 40.2627 31.1082 37.0916C31.1082 33.9205 33.7449 34.3209 34.3793 29.381C35.0135 24.4408 33.6786 22.7718 34.2602 21.3857L34.2608 21.3861Z" fill="#FAD24D"/>
<path d="M17.6098 56.2507C16.2088 55.1753 11.2851 55.3404 8.94711 56.4259C7.95547 56.8861 7.39402 57.6253 7.22058 58.2619C7.53406 58.5394 7.84847 58.7051 8.12984 58.854C9.26469 59.4551 12.4025 58.7874 14.9394 57.5856C17.4763 56.3838 17.6098 56.2502 17.6098 56.2502V56.2507Z" fill="#EDB937"/>
<path d="M42.3906 56.2507C43.7916 55.1753 48.7153 55.3404 51.0533 56.4259C52.0449 56.8861 52.6064 57.6253 52.7798 58.2619C52.4663 58.5394 52.1519 58.7051 51.8705 58.854C50.7357 59.4551 47.5979 58.7874 45.061 57.5856C42.5241 56.3838 42.3906 56.2502 42.3906 56.2502V56.2507Z" fill="#EDB937"/>
<path d="M32.8273 4.99225C32.7038 5.11213 32.5507 5.21209 32.3652 5.28182C31.0794 5.76475 28.6068 5.76475 27.3211 5.28182C27.1171 5.2053 26.9528 5.09245 26.8231 4.95674C26.8594 4.76479 26.9108 4.58936 26.9763 4.44287C27.0758 4.51834 27.1902 4.58244 27.3209 4.63154C28.6067 5.11448 31.0793 5.11448 32.365 4.63154C32.4678 4.59287 32.561 4.54494 32.6441 4.48939C32.7214 4.63436 32.7826 4.80569 32.827 4.99272L32.8273 4.99225Z" fill="#EEF3F7"/>
<path d="M27.1794 2.83154C26.497 2.94803 26.3381 4.40409 27.4742 4.78413C28.6814 5.18796 31.0024 5.18796 32.2096 4.78413C33.3457 4.40397 33.1868 2.94815 32.5044 2.83154C31.3675 3.54229 28.3103 3.6508 27.1794 2.83154Z" fill="#FEFEFE"/>
<path d="M18.1918 24.5556C18.1541 24.49 18.1768 24.4055 18.2424 24.3678C18.3081 24.3302 18.3926 24.3528 18.4303 24.4184C18.4329 24.4231 19.3504 26.0002 18.4585 26.6953C18.6331 27.1906 19.3406 29.3881 18.5379 30.4033C19.3862 30.9785 19.9843 31.8283 19.8328 33.0825C20.6671 32.8056 21.5821 32.4365 22.4378 32.0914C22.9677 31.8778 23.4755 31.6728 23.9346 31.5023L23.946 31.4976C25.0276 31.0961 25.8241 30.9096 25.9696 31.3015C25.9963 31.3731 25.9597 31.4525 25.8881 31.4792C25.8165 31.5059 25.7371 31.4694 25.7104 31.3978C25.6422 31.2138 24.9714 31.412 24.0419 31.7567L24.0306 31.7604C23.5822 31.927 23.0725 32.1327 22.5403 32.3474L22.1886 32.4893L22.1904 32.4944C22.933 34.8358 21.108 36.2818 19.2174 37.7791L19.1392 37.8411C20.1287 40.2722 23.6644 38.9886 24.4309 38.6767C23.7633 37.4853 25.2779 36.3678 25.2823 36.3644C25.343 36.319 25.4293 36.3312 25.475 36.3919C25.5205 36.4526 25.5083 36.5389 25.4476 36.5846C23.4768 38.0798 24.967 39.9113 27.5434 38.8685C27.614 38.8403 27.6942 38.8747 27.7225 38.9453C27.7507 39.0158 27.7163 39.0961 27.6457 39.1243C27.6395 39.1269 25.502 39.9963 24.5906 38.9092C23.925 39.1863 20.0674 40.658 18.9153 38.019C18.3102 38.5011 17.7123 38.9941 17.209 39.5283C15.3179 41.5351 17.5917 45.6123 17.9874 46.2842C18.5137 46.1051 20.8156 45.4253 21.3171 47.0307C21.696 46.9894 22.0419 47.0351 22.3432 47.0748C22.8555 47.1426 23.2152 47.19 23.2915 46.6178C23.3013 46.5426 23.3706 46.4894 23.4457 46.4992C23.5209 46.509 23.5741 46.5783 23.5643 46.6534C23.4517 47.4988 22.9801 47.4366 22.3076 47.3476C21.9637 47.3024 21.5778 47.2567 21.2348 47.3192C20.3369 47.4641 21.4457 48.7348 21.4487 48.7384C21.4983 48.7957 21.4921 48.8829 21.4344 48.9327C21.3771 48.9823 21.2899 48.9761 21.2401 48.9186C21.2365 48.9141 19.9092 47.3951 21.0435 47.0796C20.5854 45.7554 18.4988 46.3985 18.0576 46.5512C17.7579 50.2531 18.8 52.3379 19.0248 52.7392C19.0517 52.7375 19.0778 52.7367 19.1034 52.7367C19.6616 52.7367 20.2169 53.0802 20.643 53.5237C20.9819 53.8764 21.4275 54.5194 21.4275 55.0409C21.4275 55.1172 21.3655 55.1792 21.2892 55.1792C21.2129 55.1792 21.1509 55.1172 21.1509 55.0409C21.1509 54.591 20.7323 54.0144 20.444 53.7146C20.0639 53.3193 19.5784 53.0129 19.1029 53.0129C19.0581 53.0129 19.0153 53.0152 18.9756 53.0199L18.9631 53.0214C17.9808 53.152 18.2438 54.5365 18.2443 54.5405C18.2583 54.6152 18.2093 54.6874 18.1343 54.7012C18.0596 54.7151 17.9874 54.6662 17.9736 54.5912C17.9728 54.5867 17.6884 53.09 18.7381 52.7879C18.4283 52.1964 17.486 50.0636 17.7855 46.4843C17.5175 46.0391 15.102 41.8862 16.7952 39.5944C15.9834 39.6892 13.8856 40.1723 13.9827 42.636C14.0356 42.6283 14.0896 42.6238 14.1448 42.6244C14.2965 42.6257 14.4552 42.6605 14.6162 42.7409C14.7573 42.8112 14.9019 42.9174 15.0472 43.0678C15.0999 43.1226 15.098 43.21 15.0433 43.2627C14.9886 43.3154 14.9012 43.3136 14.8484 43.2588C14.7273 43.1336 14.6081 43.0457 14.4931 42.9884C14.3707 42.9271 14.2528 42.9007 14.1425 42.8997C14.0613 42.8988 13.9831 42.9113 13.9077 42.9332C13.8989 42.9368 13.8895 42.9396 13.88 42.9417C13.3973 43.0981 13.0543 43.6385 13.0529 43.6404C13.0116 43.7039 12.926 43.7221 12.8625 43.681C12.7989 43.6397 12.7808 43.554 12.8219 43.4905C12.8232 43.4888 13.1756 42.9326 13.71 42.7127C13.5392 39.5702 16.5811 39.3182 17.0462 39.298C17.655 38.6606 18.3559 38.1105 19.0461 37.5635C20.8561 36.1297 22.6038 34.7454 21.9305 32.5923C21.2075 32.8811 20.4654 33.1679 19.7782 33.3894C19.7525 33.447 19.6895 33.4813 19.6253 33.4685C19.6092 33.4653 19.5946 33.4595 19.5811 33.4516C18.8524 33.6761 18.1956 33.8177 17.7018 33.7973C15.9691 33.7253 14.4557 33.8501 13.3471 34.4134C12.2575 34.9669 11.5539 35.9553 11.4124 37.6182C11.2618 39.3899 10.4289 40.5543 9.63756 41.2748C11.0746 43.2752 10.0352 46.5141 9.77631 47.2341C10.1977 47.3602 11.3452 47.8164 11.4571 49.0711C11.4636 49.1466 11.4076 49.2135 11.3321 49.22C11.2566 49.2264 11.1897 49.1704 11.1833 49.0949C11.0694 47.8183 9.68959 47.4906 9.57334 47.4653L9.57017 47.4648H9.56994L9.56244 47.4633C9.3658 47.4311 9.18263 47.4402 9.01435 47.4856C8.67978 47.5756 8.39759 47.81 8.17775 48.1444C7.94993 48.4908 7.78763 48.9439 7.70021 49.4583C7.5679 50.2353 7.60728 51.1474 7.84728 52.0406C7.86696 52.1139 7.8229 52.19 7.74966 52.2095C7.6763 52.2292 7.60024 52.1852 7.58067 52.1119C7.33024 51.1805 7.29005 50.227 7.42856 49.4131C7.52208 48.8622 7.6988 48.3726 7.94818 47.9936C8.20529 47.6028 8.54033 47.3277 8.94345 47.2192C9.11841 47.1725 9.30545 47.157 9.50361 47.178C9.72521 46.5739 10.7929 43.3869 9.42896 41.457C8.88896 41.9032 8.39982 42.1423 8.20212 42.2292C8.21454 42.9641 7.54458 43.3553 7.54247 43.3562C7.47626 43.394 7.39188 43.371 7.35415 43.3051C7.31642 43.2389 7.33938 43.1545 7.40524 43.1168C7.40677 43.116 7.98193 42.7805 7.92228 42.1595L7.92181 42.1561L7.92099 42.1488C7.86263 41.6106 7.33013 41.7793 7.32884 41.7796C7.25571 41.8003 7.17907 41.7578 7.15833 41.6845C7.13759 41.6114 7.18013 41.5347 7.25337 41.514C7.25548 41.5136 7.98181 41.2828 8.16286 41.9442C9.8581 41.1525 10.9782 39.4691 11.1376 37.596C11.2881 35.8233 12.0471 34.7651 13.2235 34.1675C14.3806 33.5797 15.9376 33.4487 17.7131 33.5224C18.183 33.5419 18.8238 33.4004 19.5403 33.1769C19.9583 30.5503 16.4775 29.6434 14.5882 29.4963C14.7507 30.8156 12.6002 31.4515 12.594 31.4532C12.5213 31.4752 12.4443 31.4341 12.4224 31.3616C12.4005 31.289 12.4415 31.212 12.5141 31.19C12.52 31.1883 14.6131 30.5681 14.2857 29.3852L14.2852 29.3839L14.2848 29.3818C13.9517 28.1892 12.7598 28.3876 12.7567 28.3878C12.6815 28.3989 12.6112 28.3468 12.6002 28.2713C12.5891 28.1961 12.6412 28.1258 12.7167 28.1148C12.7203 28.1143 14.0874 27.8869 14.5217 29.215C14.9709 29.2452 16.8947 29.4198 18.304 30.2555C19.0258 29.4096 18.4148 27.4164 18.2186 26.8468C17.3053 27.3543 16.6577 27.1034 16.6559 27.1026C16.5843 27.0769 16.547 26.998 16.5724 26.9261C16.5981 26.8545 16.677 26.8171 16.7489 26.8426C16.7504 26.843 17.3431 27.074 18.214 26.5299L18.2225 26.5245C19.0356 26.0085 18.194 24.5599 18.1918 24.5556V24.5561V24.5556Z" fill="#EDB937"/>
<path d="M41.8365 24.5556C41.8743 24.49 41.8515 24.4055 41.7859 24.3678C41.7203 24.3302 41.6358 24.3528 41.5981 24.4184C41.5955 24.4231 40.6779 26.0002 41.5698 26.6953C41.3952 27.1906 40.6878 29.3881 41.4905 30.4033C40.6422 30.9785 40.044 31.8283 40.1956 33.0825C39.3613 32.8056 38.4463 32.4365 37.5905 32.0914C37.0606 31.8778 36.5528 31.6728 36.0936 31.5023L36.0823 31.4976C35.0006 31.0961 34.2041 30.9096 34.0587 31.3015C34.032 31.3731 34.0685 31.4525 34.1401 31.4792C34.2117 31.5059 34.2912 31.4694 34.3179 31.3978C34.3861 31.2138 35.0569 31.412 35.9863 31.7567L35.9977 31.7604C36.446 31.927 36.9558 32.1327 37.4879 32.3474L37.8396 32.4893L37.8379 32.4944C37.0952 34.8358 38.9202 36.2818 40.8108 37.7791L40.8891 37.8411C39.8995 40.2722 36.3639 38.9886 35.5973 38.6767C36.265 37.4853 34.7503 36.3678 34.746 36.3644C34.6853 36.319 34.5989 36.3312 34.5532 36.3919C34.5077 36.4526 34.5199 36.5389 34.5806 36.5846C36.5515 38.0798 35.0612 39.9113 32.485 38.8685C32.4144 38.8403 32.3341 38.8747 32.3059 38.9453C32.2776 39.0158 32.3121 39.0961 32.3826 39.1243C32.3889 39.1269 34.5264 39.9963 35.4377 38.9092C36.1034 39.1863 39.961 40.658 41.113 38.019C41.7182 38.5011 42.3161 38.9941 42.8194 39.5283C44.7105 41.5351 42.4367 45.6123 42.0409 46.2842C41.5146 46.1051 39.2127 45.4253 38.7113 47.0307C38.3324 46.9894 37.9865 47.0351 37.6852 47.0748C37.1728 47.1426 36.8132 47.19 36.7369 46.6178C36.727 46.5426 36.6578 46.4894 36.5827 46.4992C36.5074 46.509 36.4542 46.5783 36.4641 46.6534C36.5767 47.4988 37.0482 47.4366 37.7208 47.3476C38.0646 47.3024 38.4505 47.2567 38.7935 47.3192C39.6914 47.4641 38.5827 48.7348 38.5797 48.7384C38.5301 48.7957 38.5363 48.8829 38.594 48.9327C38.6513 48.9823 38.7384 48.9761 38.7883 48.9186C38.7919 48.9141 40.1192 47.3951 38.9849 47.0796C39.443 45.7554 41.5295 46.3985 41.9707 46.5512C42.2705 50.2531 41.2283 52.3379 41.0036 52.7392C40.9766 52.7375 40.9506 52.7367 40.9249 52.7367C40.3668 52.7367 39.8114 53.0802 39.3853 53.5237C39.0464 53.8764 38.6009 54.5194 38.6009 55.0409C38.6009 55.1172 38.6629 55.1792 38.7392 55.1792C38.8154 55.1792 38.8774 55.1172 38.8774 55.0409C38.8774 54.591 39.296 54.0144 39.5843 53.7146C39.9645 53.3193 40.45 53.0129 40.9254 53.0129C40.9703 53.0129 41.0131 53.0152 41.0528 53.0199L41.0652 53.0214C42.0476 53.152 41.7845 54.5365 41.784 54.5405C41.7701 54.6152 41.8191 54.6874 41.8941 54.7012C41.9687 54.7151 42.0409 54.6662 42.0547 54.5912C42.0556 54.5867 42.34 53.09 41.2902 52.7879C41.6001 52.1964 42.5424 50.0636 42.2428 46.4843C42.5108 46.0391 44.9263 41.8862 43.2332 39.5944C44.0449 39.6892 46.1427 40.1723 46.0457 42.636C45.9927 42.6283 45.9387 42.6238 45.8835 42.6244C45.7319 42.6257 45.5732 42.6605 45.4122 42.7409C45.2711 42.8112 45.1265 42.9174 44.9812 43.0678C44.9284 43.1226 44.9303 43.21 44.985 43.2627C45.0398 43.3154 45.1272 43.3136 45.1799 43.2588C45.3011 43.1336 45.4203 43.0457 45.5352 42.9884C45.6577 42.9271 45.7756 42.9007 45.8859 42.8997C45.9671 42.8988 46.0452 42.9113 46.1207 42.9332C46.1295 42.9368 46.1389 42.9396 46.1484 42.9417C46.6311 43.0981 46.9741 43.6385 46.9755 43.6404C47.0167 43.7039 47.1024 43.7221 47.1659 43.681C47.2294 43.6397 47.2476 43.554 47.2064 43.4905C47.2052 43.4888 46.8528 42.9326 46.3184 42.7127C46.4891 39.5702 43.4473 39.3182 42.9822 39.298C42.3734 38.6606 41.6725 38.1105 40.9822 37.5635C39.1723 36.1297 37.4245 34.7454 38.0979 32.5923C38.8208 32.8811 39.563 33.1679 40.2502 33.3894C40.2758 33.447 40.3389 33.4813 40.4031 33.4685C40.4192 33.4653 40.4338 33.4595 40.4473 33.4516C41.176 33.6761 41.8328 33.8177 42.3265 33.7973C44.0592 33.7253 45.5726 33.8501 46.6812 34.4134C47.7708 34.9669 48.4744 35.9553 48.616 37.6182C48.7666 39.3899 49.5994 40.5543 50.3908 41.2748C48.9537 43.2752 49.9932 46.5141 50.252 47.2341C49.8306 47.3602 48.6831 47.8164 48.5712 49.0711C48.5648 49.1466 48.6208 49.2135 48.6963 49.22C48.7717 49.2264 48.8386 49.1704 48.8451 49.0949C48.959 47.8183 50.3388 47.4906 50.455 47.4653L50.4582 47.4648H50.4584L50.4659 47.4633C50.6625 47.4311 50.8457 47.4402 51.014 47.4856C51.3486 47.5756 51.6308 47.81 51.8506 48.1444C52.0784 48.4908 52.2407 48.9439 52.3281 49.4583C52.4604 50.2353 52.4211 51.1474 52.1811 52.0406C52.1614 52.1139 52.2054 52.19 52.2787 52.2095C52.352 52.2292 52.4281 52.1852 52.4477 52.1119C52.6981 51.1805 52.7383 50.227 52.5998 49.4131C52.5063 48.8622 52.3295 48.3726 52.0802 47.9936C51.8231 47.6028 51.488 47.3277 51.0849 47.2192C50.9099 47.1725 50.7229 47.157 50.5247 47.178C50.3031 46.5739 49.2354 43.3869 50.5994 41.457C51.1394 41.9032 51.6285 42.1423 51.8262 42.2292C51.8138 42.9641 52.4838 43.3553 52.4859 43.3562C52.5521 43.394 52.6365 43.371 52.6743 43.3051C52.712 43.2389 52.6891 43.1545 52.6232 43.1168C52.6217 43.116 52.0465 42.7805 52.1062 42.1595L52.1067 42.1561L52.1075 42.1488C52.1658 41.6106 52.6983 41.7793 52.6996 41.7796C52.7727 41.8003 52.8495 41.7578 52.8701 41.6845C52.8909 41.6114 52.8483 41.5347 52.7751 41.514C52.773 41.5136 52.0467 41.2828 51.8656 41.9442C50.1704 41.1525 49.0503 39.4691 48.8909 37.596C48.7403 35.8233 47.9814 34.7651 46.805 34.1675C45.6478 33.5797 44.0909 33.4487 42.3154 33.5224C41.8454 33.5419 41.2047 33.4004 40.4882 33.1769C40.0702 30.5503 43.551 29.6434 45.4403 29.4963C45.2778 30.8156 47.4283 31.4515 47.4345 31.4532C47.5071 31.4752 47.5841 31.4341 47.6061 31.3616C47.628 31.289 47.587 31.212 47.5144 31.19C47.5084 31.1883 45.4153 30.5681 45.7428 29.3852L45.7432 29.3839L45.7437 29.3818C46.0768 28.1892 47.2687 28.3876 47.2717 28.3878C47.347 28.3989 47.4173 28.3468 47.4283 28.2713C47.4394 28.1961 47.3873 28.1258 47.3118 28.1148C47.3082 28.1143 45.941 27.8869 45.5067 29.215C45.0577 29.2452 43.1338 29.4198 41.7245 30.2555C41.0026 29.4096 41.6137 27.4164 41.8098 26.8468C42.7232 27.3543 43.3708 27.1034 43.3725 27.1026C43.4441 27.0769 43.4815 26.998 43.4561 26.9261C43.4304 26.8545 43.3514 26.8171 43.2796 26.8426C43.2781 26.843 42.6853 27.074 41.8145 26.5299L41.806 26.5245C40.9929 26.0085 41.8344 24.5599 41.8367 24.5556V24.5561H41.8365V24.5556Z" fill="#EDB937"/>
<path d="M34.2608 21.3858C34.2608 21.3858 35.5524 19.8282 37.5994 20.7056C39.6461 21.5828 47.5021 26.1967 49.0483 29.8335C50.5947 33.4702 50.373 36.9698 50.373 36.9698C50.373 36.9698 55.5646 49.0091 54.0544 55.993C54.4252 54.7212 54.6741 52.8361 54.6741 49.975C54.6741 42.5649 51.1684 36.9901 51.1684 36.9901C51.1684 36.9901 51.7022 33.1347 49.7329 29.2962C47.7635 25.4577 38.5671 20.284 36.7311 19.85C35.2488 19.4996 34.5496 20.7168 34.3355 21.1977C34.2846 21.3124 34.2608 21.3855 34.2608 21.3855H34.2609V21.3858H34.2608Z" fill="#EDB937"/>
<path d="M23.8651 19.7904C21.7468 20.4622 16.9336 23.2615 14.4911 25.1624C10.7608 28.0654 8.79663 31.4982 9.40495 36.7081C9.40495 36.7081 5.7883 43.557 5.32611 49.9754C5.32611 42.5654 8.83179 36.9908 8.83179 36.9908C8.47858 34.4406 9.28085 30.4697 10.8543 28.3756C10.9013 28.313 10.9496 28.2503 10.9999 28.1869C13.5586 24.9545 20.3009 20.5508 23.2691 19.8507C23.484 19.8 23.6824 19.7825 23.8651 19.7904Z" fill="#FFF985"/>
</svg>
