<svg width="60" height="60" viewBox="0 0 60 60" fill="none" xmlns="http://www.w3.org/2000/svg">
<g clip-path="url(#clip0)">
<path d="M30 59.9992C46.5683 59.9992 59.9995 46.5679 59.9995 29.9996C59.9995 13.4313 46.5683 0 30 0C13.4316 0 0.000366211 13.4313 0.000366211 29.9996C0.000366211 46.5679 13.4316 59.9992 30 59.9992Z" fill="#21D0C3"/>
<path d="M52.3143 50.0492C52.2037 49.2466 52.0677 48.4209 51.8901 47.5951C51.022 43.5608 49.7817 41.3485 49.7817 40.6976C49.7817 40.047 49.4096 38.4853 48.7896 36.2731C48.1695 34.0608 48.6656 32.7591 48.0454 25.6016C47.4253 18.444 46.4332 17.9236 44.6966 17.2728C42.96 16.6221 41.5958 17.2728 39.6115 17.0125C37.6268 16.7522 34.5264 16.3619 33.782 15.711C33.227 15.226 33.2239 12.8609 33.2583 11.6883C34.0098 11.1114 34.5905 10.4964 34.6505 10.2453C34.7745 9.72498 35.0226 7.25199 35.0226 7.25199L36.1388 5.5604C36.1388 5.5604 37.0069 3.60842 36.5108 3.34768C36.0147 3.08776 35.4453 4.36158 35.4453 4.36158C35.4453 4.36158 36.1387 1.52612 36.0147 0.615114L36.0129 0.602692C34.0702 0.207772 32.0595 0 30.0003 0C28.2607 0 26.5564 0.149765 24.8979 0.43406C24.8823 0.492653 24.8669 0.552887 24.8522 0.615231C24.6038 1.65632 25.1002 4.12919 25.1002 4.12919C25.1002 4.12919 24.2321 3.47857 24.1081 4.12919C23.9838 4.77982 24.7283 6.34145 25.2243 6.47188C25.8445 6.86199 26.0925 8.16347 26.0925 8.81432C26.0925 9.46494 27.0846 11.2871 27.0846 11.2871C27.0846 11.2871 27.313 11.4708 27.6711 11.7145C27.7044 12.8952 27.6978 15.2302 27.1466 15.7118C26.4024 16.3627 23.3015 16.7531 21.3173 17.0133C19.3327 17.2736 17.9687 16.6232 16.2319 17.2736C14.4955 17.9247 13.5034 18.445 12.8831 25.6024C12.2629 32.7599 12.7591 34.0616 12.1389 36.2739C11.5188 38.4861 11.1468 40.048 11.1468 40.6984C11.1468 41.3493 9.90662 43.5615 9.03839 47.5959C8.79546 48.7242 8.63046 49.8528 8.50226 50.9212C9.73413 52.187 11.0765 53.3445 12.5144 54.378C12.6529 53.8961 12.849 53.3812 13.1314 52.8341C14.3409 50.4915 15.271 45.3187 15.9221 43.269C16.5731 41.2193 17.6894 38.8768 17.6894 38.3888C17.6894 37.9009 17.9684 30.1901 18.8056 28.6285C19.643 27.0669 20.108 27.2618 20.108 27.2618C20.108 27.2618 20.573 29.5067 20.2941 31.8493C20.015 34.1917 19.922 34.3871 20.5731 37.6078C21.2242 40.8287 22.2473 42.0977 22.1544 43.8546C22.0615 45.6116 21.5965 44.8308 20.5731 47.1731C19.5853 49.4338 18.194 50.3924 18.2095 57.5928C21.8289 59.142 25.8144 60.0001 30.0004 60.0001C34.5474 60.0001 38.8572 58.987 42.7182 57.1763C42.68 50.3546 41.3235 49.3892 40.3554 47.1729C39.3322 44.8302 38.8671 45.6112 38.7741 43.8544C38.6811 42.0976 39.7044 40.8288 40.3554 37.6076C41.0067 34.3869 40.9138 34.1916 40.6347 31.849C40.3554 29.5066 40.8207 27.2615 40.8207 27.2615C40.8207 27.2615 41.2857 27.0666 42.1229 28.6283C42.9598 30.1897 43.2391 37.9004 43.2391 38.3885C43.2391 38.8766 44.3553 41.2191 45.0064 43.2688C45.6575 45.3185 46.5877 50.4915 47.7971 52.8339C47.9738 53.1762 48.1166 53.5057 48.2328 53.8226C49.7074 52.6927 51.0739 51.4293 52.3142 50.0498L52.3143 50.0492Z" fill="#0F7986"/>
<path d="M2.98405 16.9454H57.0165C58.927 20.8922 59.9987 25.3208 59.9987 29.9998C59.9987 32.9989 59.5566 35.8942 58.7376 38.6265H1.26269C0.443672 35.8942 0.00152588 32.999 0.00152588 29.9997C0.00152588 25.3207 1.07332 20.892 2.9837 16.9453L2.98405 16.9454Z" fill="#EEF3F7"/>
<path d="M49.413 38.6262C49.2513 37.9603 49.0407 37.1701 48.7892 36.2731C48.1691 34.0608 48.6652 32.7591 48.0451 25.6016C47.4249 18.444 46.4328 17.9236 44.6962 17.2727C42.9596 16.6221 41.5955 17.2727 39.6111 17.0125L39.099 16.9453H21.8293L21.3172 17.0125C19.3325 17.2727 17.9686 16.6223 16.2318 17.2727C14.4954 17.9238 13.5033 18.4441 12.8829 25.6016C12.2628 32.7591 12.759 34.0608 12.1388 36.2731C11.8873 37.1701 11.6768 37.9603 11.515 38.6262H17.647C17.6742 38.5247 17.6889 38.4437 17.6889 38.3877C17.6889 37.8999 17.9679 30.1891 18.8051 28.6274C19.6425 27.0658 20.1075 27.2607 20.1075 27.2607C20.1075 27.2607 20.5725 29.5056 20.2936 31.8482C20.0146 34.1907 19.9215 34.386 20.5726 37.6068C20.646 37.9703 20.7245 38.3087 20.8051 38.6261H40.1222C40.203 38.3087 40.2811 37.9703 40.3547 37.6068C41.006 34.3861 40.9131 34.1908 40.6339 31.8482C40.3547 29.5058 40.82 27.2607 40.82 27.2607C40.82 27.2607 41.2852 27.0658 42.1222 28.6274C42.959 30.1888 43.2384 37.8996 43.2384 38.3877C43.2384 38.4437 43.2532 38.5245 43.2803 38.6262H49.4123H49.413Z" fill="#15BDB2"/>
<path d="M2.98407 16.9453H57.0166C57.1068 17.1314 57.1948 17.3187 57.2812 17.5069H2.71946C2.80583 17.3187 2.89383 17.1313 2.98407 16.9453ZM58.8999 38.0648C58.8475 38.2527 58.7935 38.4397 58.7377 38.6261H1.26271C1.20693 38.4397 1.15291 38.2527 1.10052 38.0648H58.8996H58.8999Z" fill="#FEFEFE"/>
<path d="M38.1928 32.5365C38.2971 32.1299 38.2975 31.7397 38.2709 31.4487C38.2864 31.415 38.302 31.3818 38.3174 31.3466C38.7292 30.3992 38.3287 28.9636 38.2631 28.7438C38.4422 28.1697 38.4707 27.5426 38.445 26.9769C38.407 26.1353 38.1432 25.6826 37.9358 25.4527C38.0386 24.8455 37.9619 24.2319 37.743 23.5706C37.6506 23.2913 37.55 23.1225 37.4589 23.0197C37.4623 22.8231 37.4503 22.6037 37.4241 22.3497C37.3561 21.6995 37.0895 21.2695 36.8544 21.0082C36.8918 20.8754 36.9136 20.7436 36.9136 20.6144C36.9136 19.9553 36.0933 19.4701 35.6535 19.2567C35.6917 19.148 35.7086 19.0611 35.7007 19.0079C35.6368 18.5582 35.1902 18.4941 34.6795 18.5582C34.8072 20.679 30.2119 21.8356 30.2119 21.8356C30.2119 21.8356 30.4675 22.5425 30.4034 22.7353C33.0112 22.3415 34.5515 20.9652 35.2498 19.9843C35.5799 20.1835 36.1086 20.5584 36.02 20.8715C35.0627 23.0566 30.2758 23.4421 30.2758 23.4421C30.2758 23.4421 30.5314 24.3418 30.2758 24.4061C31.2331 24.3418 33.5309 23.9564 34.7434 23.2494C35.4728 22.8241 36.1082 22.2828 36.4999 21.7229C36.6066 21.9962 36.6922 22.4031 36.5945 22.9283C36.4028 23.9564 34.3606 25.1775 33.9138 25.2418C33.467 25.3061 30.5312 25.2418 30.5312 25.2418L30.4674 26.1418C30.4674 26.1418 32.8288 26.4632 33.7863 26.2061C34.7436 25.949 35.8286 25.4349 36.5946 24.7283C36.7613 24.5743 36.8993 24.4327 37.0143 24.2926C36.9668 24.8471 36.8438 25.6057 36.5309 26.2705C35.9565 27.4915 34.6799 27.4915 33.5311 27.5559C32.3823 27.6202 30.4675 26.5276 30.4675 26.5276L30.5314 27.3629C30.5314 27.3629 31.4887 27.8126 32.063 28.1341C32.6373 28.4555 34.2329 28.6482 35.5095 28.1984C36.4954 27.8509 37.2514 27.0058 37.6332 26.3129C38.4151 28.0843 36.9459 29.307 35.9561 29.8052C34.9349 30.3193 30.6589 28.6484 30.6589 28.6484L30.4674 29.2909C30.4674 29.2909 31.68 29.6767 32.1266 29.8691C32.5735 30.0619 33.9136 30.9616 36.0837 30.576C36.8624 30.4375 37.3916 30.1156 37.751 29.6961C38.366 30.8091 37.2438 31.6344 36.4029 32.1183C35.5095 32.6324 33.531 31.9896 32.7011 31.3471C31.8714 30.7043 30.595 30.0617 30.595 30.0617L30.4033 31.0257C30.4033 31.0257 30.7453 31.2122 31.1526 31.4289C31.3634 31.7188 31.6417 32.1791 31.9838 32.7035C32.446 35.153 34.1735 37.1309 36.0834 37.1309C38.0619 37.1309 38.1895 35.3315 38.3171 34.4959C38.396 33.9812 38.305 33.4428 38.2236 33.1046C38.2223 32.896 38.2094 32.7017 38.1928 32.5365ZM37.8785 33.3414C37.8069 34.2852 37.167 35.1916 35.9559 35.5241C35.2991 35.6814 34.4288 34.8516 33.7106 33.964C34.2245 34.4418 34.887 34.7699 35.8283 34.8172C36.8428 34.8681 37.4934 34.1074 37.8785 33.3414ZM35.9558 33.0822C36.6423 33.0165 37.127 32.8317 37.4973 32.53C37.3043 33.0137 36.9072 33.6318 36.0834 34.0465C35.1015 34.4997 33.8325 33.2901 33.0468 32.3624C33.8085 32.7066 34.9955 33.1745 35.9558 33.0822ZM36.2112 36.5524C34.9188 36.8216 33.5962 35.0864 32.9151 34.014C33.614 34.8961 34.463 35.7175 35.4454 36.0382C36.6124 36.4194 37.3548 35.4279 37.8639 34.6099C37.727 35.3221 37.3341 36.2794 36.2112 36.5524Z" fill="#EEF3F7"/>
<path d="M22.3054 33.1042C22.224 33.4421 22.1331 33.9808 22.2117 34.4955C22.3393 35.3308 22.467 37.1305 24.4456 37.1305C26.3555 37.1305 28.0831 35.1528 28.5453 32.7031C28.8874 32.1786 29.1657 31.7182 29.3765 31.4285C29.7837 31.2118 30.1258 31.0253 30.1258 31.0253L29.9343 30.0613C29.9343 30.0613 28.6579 30.7038 27.8282 31.3467C26.9985 31.9892 25.02 32.6321 24.1264 32.1179C23.2854 31.6339 22.1635 30.8087 22.7783 29.6957C23.1377 30.115 23.6668 30.4372 24.4456 30.5756C26.6156 30.9612 27.956 30.0615 28.4027 29.8687C28.8495 29.676 30.0619 29.2905 30.0619 29.2905L29.8704 28.648C29.8704 28.648 25.5943 30.319 24.5732 29.8048C23.5835 29.3066 22.1142 28.084 22.8961 26.3125C23.278 27.0054 24.0337 27.8508 25.0198 28.198C26.2962 28.6478 27.892 28.4551 28.4663 28.1337C29.0406 27.8122 29.9979 27.3625 29.9979 27.3625L30.0618 26.5272C30.0618 26.5272 28.1472 27.6196 26.9982 27.5555C25.8494 27.4911 24.5731 27.4911 23.9984 26.2701C23.6858 25.6053 23.5627 24.8467 23.515 24.2922C23.63 24.4322 23.7681 24.5738 23.9347 24.7279C24.7005 25.4347 25.7857 25.949 26.743 26.2057C27.7003 26.4628 30.0618 26.1414 30.0618 26.1414L29.9979 25.2414C29.9979 25.2414 27.0619 25.3057 26.6153 25.2414C26.1686 25.1771 24.1264 23.956 23.9347 22.9279C23.8368 22.4029 23.9223 21.996 24.0293 21.7225C24.4211 22.2824 25.0563 22.8241 25.7858 23.249C26.9984 23.9558 29.2961 24.3414 30.2534 24.4057C29.9978 24.3414 30.2534 23.4418 30.2534 23.4418C30.2534 23.4418 25.4664 23.056 24.5091 20.8711C24.4202 20.5583 24.9492 20.1834 25.2793 19.9839C25.978 20.9648 27.5181 22.3411 30.1257 22.7349C30.0618 22.5421 30.3174 21.8352 30.3174 21.8352C30.3174 21.8352 25.7221 20.6785 25.8498 18.5578C25.3393 18.4934 24.8925 18.5578 24.8286 19.0075C24.8211 19.0607 24.8376 19.1476 24.8758 19.2563C24.436 19.4695 23.6157 19.955 23.6157 20.614C23.6157 20.7429 23.6375 20.8748 23.6747 21.0078C23.4398 21.2693 23.1731 21.6989 23.1052 22.3493C23.0785 22.6036 23.0668 22.8229 23.0702 23.0193C22.9793 23.1221 22.8785 23.2908 22.7863 23.5702C22.5675 24.2314 22.4907 24.8451 22.5933 25.4523C22.3855 25.6822 22.1219 26.1351 22.0841 26.9765C22.0584 27.5424 22.0869 28.1691 22.266 28.7434C22.2003 28.9635 21.8001 30.3988 22.2117 31.3462C22.2269 31.381 22.2426 31.4144 22.2582 31.4483C22.2313 31.7389 22.2319 32.1292 22.3363 32.5361C22.3197 32.7014 22.3067 32.896 22.3054 33.1042ZM24.7009 34.817C25.6421 34.7697 26.3043 34.4413 26.8185 33.9637C26.1008 34.8512 25.2298 35.6811 24.5732 35.5238C23.3619 35.1914 22.7223 34.2849 22.6507 33.3411C23.0356 34.1072 23.6863 34.8682 24.7009 34.817ZM27.4822 32.3618C26.6967 33.2891 25.4275 34.4988 24.4457 34.0459C23.622 33.6311 23.2247 33.0133 23.0317 32.5294C23.4022 32.8311 23.8869 33.0159 24.5734 33.0815C25.5334 33.174 26.7203 32.7058 27.4822 32.3618ZM22.6654 34.6098C23.1746 35.4275 23.9168 36.4193 25.0839 36.038C26.0663 35.7173 26.9153 34.8961 27.6142 34.0139C26.9334 35.0861 25.6106 36.8214 24.3181 36.5523C23.195 36.2794 22.8023 35.3218 22.6654 34.6098Z" fill="#EEF3F7"/>
<path d="M29.8714 20.1534C29.8714 20.1534 28.9141 19.3237 28.6587 19.3237C28.4034 19.3237 27.8929 19.8342 27.829 20.281C27.7652 20.7279 28.0844 21.2383 28.4672 21.4298C28.8502 21.6213 29.1692 21.7489 29.1692 21.7489C29.1692 21.7489 29.2331 29.6631 29.4245 29.9821C29.616 30.3015 30.3818 31.067 30.3818 31.067H30.3735C30.3735 31.067 31.1393 30.3012 31.3308 29.9821C31.5223 29.663 31.5862 21.7489 31.5862 21.7489C31.5862 21.7489 31.9053 21.6213 32.2881 21.4298C32.6711 21.2381 32.99 20.7279 32.9263 20.281C32.8624 19.8342 32.352 19.3237 32.0966 19.3237C31.841 19.3237 30.884 20.1534 30.884 20.1534C30.884 20.1534 30.4773 20.4404 29.8709 20.1534H29.8714Z" fill="#EEF3F7"/>
</g>
<defs>
<clipPath id="clip0">
<rect width="60" height="60" fill="white"/>
</clipPath>
</defs>
</svg>
