<svg width="60" height="60" viewBox="0 0 60 60" fill="none" xmlns="http://www.w3.org/2000/svg">
<g clip-path="url(#clip0)">
<path d="M30.0001 60.0001C46.5686 60.0001 60.0001 46.5686 60.0001 30.0001C60.0001 13.4315 46.5686 0 30.0001 0C13.4315 0 0 13.4315 0 30.0001C0 46.5686 13.4315 60.0001 30.0001 60.0001Z" fill="#21D0C3"/>
<path d="M45.3415 8.08203H7.15784V57.6283H45.3415V8.08203Z" fill="#FF5B62"/>
<path d="M8.5321 9.79639H42.8065L43.9684 56.1377H9.69391L8.5321 9.79639Z" fill="#DCE3DB"/>
<path d="M42.8059 9.79639H9.10413V54.9987H42.8059V9.79639Z" fill="white"/>
<path d="M21.8273 6.87744H31.0572C31.7218 6.87744 32.2659 7.42119 32.2659 8.08612V12.0533H20.6188V8.08612C20.6187 7.42155 21.1625 6.87744 21.8273 6.87744Z" fill="#666666"/>
<path d="M20.3692 11.7539H32.5151C32.7722 11.7539 32.9804 11.9623 32.9804 12.2191C32.9804 12.4761 32.7721 12.6844 32.5151 12.6844H20.3692C20.1121 12.6844 19.9039 12.476 19.9039 12.2191C19.9038 11.9621 20.1122 11.7539 20.3692 11.7539Z" fill="#B0B0B0"/>
<path d="M25.2283 5.67305L24.2458 11.7534H23.7401L24.7198 5.68828C24.4414 5.30179 24.2996 4.83867 24.2996 4.38409C24.2996 4.09276 24.3577 3.80343 24.4748 3.53882C24.5934 3.27139 24.7723 3.02952 25.0124 2.83557C25.7768 2.21857 27.1026 2.21799 27.8674 2.83522C28.1083 3.02987 28.2878 3.27268 28.4068 3.54069C28.5246 3.80636 28.5829 4.09651 28.5829 4.38913C28.5829 4.84218 28.4424 5.30367 28.1649 5.6884L29.1446 11.7537H28.6389L27.6564 5.6734C27.6417 5.59617 27.6644 5.5207 27.7117 5.46527C27.9602 5.15449 28.0858 4.76882 28.0858 4.38913C28.0858 4.1639 28.0416 3.94218 27.9523 3.74085C27.8643 3.54257 27.7326 3.36397 27.5565 3.22206C26.9752 2.75295 25.9043 2.75389 25.3233 3.22241C25.1478 3.36385 25.0169 3.54186 24.9293 3.73909C24.8404 3.93925 24.7968 4.16026 24.7968 4.38421C24.7968 4.76788 24.9254 5.15824 25.1777 5.47113C25.2252 5.53019 25.2412 5.60414 25.2283 5.67305Z" fill="#FEFEFE"/>
<path d="M22.3647 23.0625H39.9339V23.5068H22.3647V23.0625ZM22.3647 27.3482H33.3248V27.7925H22.3647V27.3482ZM22.3647 25.2054H39.9339V25.6497H22.3647V25.2054Z" fill="#C2C2C4"/>
<path d="M22.3647 34.4487H39.9339V34.893H22.3647V34.4487ZM22.3647 38.7343H33.3248V39.1786H22.3647V38.7343ZM22.3647 36.5915H39.9339V37.0358H22.3647V36.5915Z" fill="#C2C2C4"/>
<path d="M22.3647 45.835H39.9339V46.2792H22.3647V45.835ZM22.3647 50.1205H33.3248V50.5648H22.3647V50.1205ZM22.3647 47.9777H39.9339V48.422H22.3647V47.9777Z" fill="#C2C2C4"/>
<path d="M14.7009 22.1211C15.6139 22.1211 16.4404 22.4912 17.0386 23.0894L17.0382 23.0898C17.6367 23.6886 18.0071 24.5151 18.0071 25.4271C18.0071 26.3401 17.6371 27.1666 17.0388 27.7648C16.4407 28.3629 15.6141 28.7331 14.7011 28.7331C13.7891 28.7331 12.9625 28.3627 12.3638 27.7642L12.3632 27.7648C11.7651 27.1666 11.3949 26.3398 11.3949 25.4271C11.3949 24.5154 11.765 23.6888 12.3632 23.0904L12.3638 23.0898L12.3644 23.0894C12.9629 22.4913 13.7894 22.1211 14.7011 22.1211H14.7009ZM16.6898 23.4382C16.1808 22.9292 15.4775 22.6145 14.701 22.6145C13.9236 22.6145 13.2203 22.929 12.7122 23.4374L12.7109 23.4383C12.2028 23.9468 11.888 24.6497 11.888 25.4271C11.888 26.2036 12.2031 26.9068 12.7121 27.4159V27.4172C13.2202 27.9253 13.9236 28.2401 14.7009 28.2401C15.4774 28.2401 16.1806 27.925 16.6897 27.416C17.1986 26.9069 17.5134 26.2037 17.5134 25.4272C17.5134 24.6498 17.1989 23.9469 16.6905 23.4384H16.6898V23.4382Z" fill="#15BDB2"/>
<path d="M14.7009 33.5073C15.6139 33.5073 16.4404 33.8772 17.0386 34.4757L17.0382 34.476C17.6367 35.0748 18.0071 35.9014 18.0071 36.8133C18.0071 37.7263 17.6371 38.5529 17.0388 39.151C16.4407 39.7491 15.6141 40.1193 14.7011 40.1193C13.7891 40.1193 12.9625 39.7489 12.3638 39.1504L12.3632 39.151C11.7651 38.5529 11.3949 37.726 11.3949 36.8133C11.3949 35.9016 11.765 35.0751 12.3632 34.4766L12.3638 34.476L12.3644 34.4757C12.9629 33.8775 13.7894 33.5073 14.7011 33.5073H14.7009ZM16.6898 34.8245C16.1808 34.3156 15.4775 34.0008 14.701 34.0008C13.9236 34.0008 13.2203 34.3153 12.7122 34.8237L12.7109 34.8246C12.2028 35.3331 11.888 36.036 11.888 36.8134C11.888 37.5899 12.2031 38.2932 12.7121 38.8022V38.8032C13.2202 39.3112 13.9236 39.6261 14.7009 39.6261C15.4774 39.6261 16.1806 39.311 16.6897 38.8024C17.1986 38.2934 17.5134 37.59 17.5134 36.8136C17.5134 36.0361 17.1989 35.3332 16.6905 34.8248H16.6898V34.8245Z" fill="#15BDB2"/>
<path d="M14.7009 44.894C15.6139 44.894 16.4404 45.2639 17.0386 45.8624L17.0382 45.863C17.6367 46.4614 18.0071 47.288 18.0071 48.2C18.0071 49.1131 17.6371 49.9396 17.0388 50.5377C16.4407 51.1358 15.6141 51.506 14.7011 51.506C13.7891 51.506 12.9625 51.1356 12.3638 50.5371L12.3632 50.5377C11.7651 49.9396 11.3949 49.1131 11.3949 48.2C11.3949 47.2883 11.765 46.4618 12.3632 45.8633L12.3638 45.863L12.3644 45.8624C12.9629 45.2642 13.7894 44.894 14.7011 44.894H14.7009ZM16.6898 46.2111C16.1808 45.7022 15.4775 45.3874 14.701 45.3874C13.9236 45.3874 13.2203 45.7019 12.7122 46.2103L12.7109 46.2112C12.2028 46.7197 11.888 47.4227 11.888 48.2C11.888 48.9765 12.2031 49.6798 12.7121 50.1888V50.1898C13.2202 50.6983 13.9236 51.0127 14.7009 51.0127C15.4774 51.0127 16.1806 50.6976 16.6897 50.189C17.1986 49.68 17.5134 48.9766 17.5134 48.2002C17.5134 47.4227 17.1989 46.7198 16.6905 46.2114H16.6898V46.2111Z" fill="#15BDB2"/>
<path d="M12.913 25.7718C12.7916 25.679 12.7682 25.5052 12.8611 25.3838C12.9539 25.2624 13.1279 25.239 13.2493 25.3319L14.2044 26.0639L15.7211 24.0099C15.812 23.887 15.9854 23.8614 16.1084 23.9525C16.2311 24.0434 16.2569 24.2172 16.1656 24.3398L14.4872 26.6135L14.4798 26.6233C14.387 26.7447 14.213 26.7682 14.0916 26.6752L12.9131 25.7722C12.913 25.7722 12.913 25.7718 12.913 25.7718Z" fill="#FF5B62"/>
<path d="M13.102 37.2708C12.9806 37.178 12.9572 37.004 13.0501 36.8826C13.1429 36.7612 13.317 36.7377 13.4384 36.8307L14.3934 37.5626L15.9101 35.5083C16.001 35.3856 16.1745 35.3598 16.2974 35.4511C16.4201 35.5421 16.4459 35.7159 16.3546 35.8384L14.6762 38.1121L14.6688 38.1219C14.576 38.2434 14.402 38.2668 14.2806 38.1739L13.102 37.2708Z" fill="#FF5B62"/>
<path d="M13.102 48.6572C12.9806 48.5644 12.9572 48.3906 13.0501 48.2693C13.1429 48.1479 13.317 48.1245 13.4384 48.2174L14.3934 48.9493L15.9101 46.895C16.001 46.7723 16.1745 46.7466 16.2974 46.8379C16.4201 46.9288 16.4459 47.1026 16.3546 47.2252L14.6762 49.4988L14.6688 49.5087C14.576 49.6301 14.402 49.6535 14.2806 49.5606L13.1021 48.6576V48.6572H13.102Z" fill="#FF5B62"/>
<path d="M51.8868 12.3521H48.9766V26.8199H51.8868V12.3521Z" fill="#0F7986"/>
<path d="M48.9763 26.8188H51.8869L50.9782 29.6901H49.8851L48.9764 26.8188H48.9763Z" fill="#FF5B62"/>
<path d="M49.6637 2.83508H51.1997C51.6417 2.83508 52.0036 3.19684 52.0036 3.63899V12.3103C52.0036 12.3334 51.9851 12.3515 51.9624 12.3515H48.9015C48.8788 12.3515 48.8604 12.3329 48.8604 12.3103V3.63887C48.8604 3.19684 49.2221 2.83496 49.6643 2.83496C49.6641 2.83508 49.6637 2.83508 49.6637 2.83508Z" fill="#FF5B62"/>
<path d="M52.0031 3.63938V12.3128C52.0018 12.334 51.9853 12.3509 51.964 12.3519H51.9619H51.5919V2.93848C51.8367 3.07652 52.0031 3.33961 52.0031 3.63938Z" fill="#ED4C54"/>
<path d="M50.1521 29.6904H50.7113V31.0275C50.7113 31.1815 50.5856 31.3069 50.4319 31.3069H50.4316C50.278 31.3069 50.1522 31.1815 50.1522 31.0275V29.6904H50.1521Z" fill="#EEF3F7"/>
<path d="M48.8597 3.68492H52.6378H52.8416V3.89938V13.0076V13.0909L52.7868 13.1534L52.4275 13.5615C52.2552 13.7148 51.9609 13.4801 52.13 13.2699L52.4343 12.924V4.11407H48.8597V3.68457V3.68492Z" fill="#FAD24D"/>
<path d="M51.8872 12.3521H51.5264V26.8199H51.8872V12.3521Z" fill="#076673"/>
<path d="M16.8035 18.1963C16.6455 18.1963 16.5173 18.0681 16.5173 17.9101C16.5173 17.7521 16.6455 17.6239 16.8035 17.6239H21.5274L22.5874 15.0548C22.6473 14.909 22.814 14.8397 22.9597 14.8993C23.0345 14.93 23.0891 14.989 23.1168 15.0585L23.1177 15.0581L24.69 19.0277L26.0281 16.7617C26.1084 16.6261 26.2836 16.5812 26.4194 16.6612C26.4624 16.6868 26.4959 16.7215 26.5198 16.7617L27.2956 17.9512L28.4202 16.7549C28.5281 16.6403 28.7091 16.6346 28.8241 16.7426C28.846 16.7632 28.8633 16.7862 28.8775 16.8108L29.3334 17.6244H35.4596C35.6176 17.6244 35.7458 17.7526 35.7458 17.9106C35.7458 18.0685 35.6176 18.1968 35.4596 18.1968H29.1665V18.1962C29.0663 18.1962 28.9694 18.1437 28.9172 18.0501L28.5697 17.4298L27.4631 18.6064L27.4627 18.6061C27.4473 18.6221 27.4299 18.6374 27.4104 18.6497C27.2786 18.7355 27.1015 18.6976 27.0157 18.5658L26.2862 17.447L24.8931 19.8062C24.8624 19.8659 24.811 19.9147 24.7441 19.9412C24.5971 19.999 24.4308 19.9267 24.3727 19.7802L22.8456 15.9246L21.9901 17.9975C21.953 18.1121 21.8453 18.1956 21.7181 18.1956H16.8036L16.8035 18.1963Z" fill="#15BDB2"/>
</g>
<defs>
<clipPath id="clip0">
<rect width="60" height="60" fill="white"/>
</clipPath>
</defs>
</svg>
