<svg width="8" height="8" viewBox="0 0 8 8" fill="none" xmlns="http://www.w3.org/2000/svg">
<path d="M7.79164 3.81559L4.05603 0.0802145C4.00271 0.026813 3.94122 0 3.87173 0C3.80233 0 3.74092 0.026813 3.68749 0.0802145L3.28665 0.481006C3.23322 0.534436 3.20654 0.595811 3.20654 0.665384C3.20654 0.734958 3.23322 0.796333 3.28665 0.849763L6.43703 4.00006L3.28667 7.15043C3.23324 7.20386 3.20657 7.26535 3.20657 7.33473C3.20657 7.40427 3.23324 7.46576 3.28667 7.51919L3.68752 7.91987C3.74092 7.97336 3.80233 8 3.87176 8C3.94133 8 4.00274 7.9733 4.05603 7.91987L7.79164 4.18446C7.84504 4.13106 7.87168 4.06955 7.87168 4.00008C7.87168 3.93062 7.84504 3.86914 7.79164 3.81559Z" fill="#808080"/>
<path d="M4.79359 4.00008C4.79359 3.93062 4.767 3.86911 4.71337 3.81559L0.978033 0.0802145C0.924631 0.026813 0.863144 0 0.793683 0C0.724222 0 0.662707 0.026813 0.609306 0.0802145L0.208543 0.481034C0.155029 0.534464 0.128357 0.595839 0.128357 0.665413C0.128357 0.734986 0.155029 0.796361 0.208543 0.849791L3.35883 4.00008L0.208543 7.15043C0.155029 7.20386 0.128357 7.26535 0.128357 7.33473C0.128357 7.40427 0.155029 7.46576 0.208543 7.51919L0.609277 7.91987C0.662707 7.97336 0.724194 8 0.793655 8C0.863116 8 0.924603 7.9733 0.978033 7.91987L4.71337 4.18446C4.767 4.13106 4.79359 4.06955 4.79359 4.00008Z" fill="#808080"/>
</svg>
