<svg width="26" height="26" viewBox="0 0 26 26" fill="none" xmlns="http://www.w3.org/2000/svg">
<path d="M19.2555 14.6218C18.2796 15.599 16.7551 17.125 15.4787 18.4104C13.9614 17.4172 12.5899 16.3212 11.487 15.2183C10.125 13.8563 8.42185 11.9171 7.50144 10.5435C8.67 9.38322 10.1982 7.85701 11.3196 6.73665L4.5829 0L1.22162 3.30078L1.21666 3.30574C0.276017 4.24638 -0.122298 5.5304 0.0328225 7.12207C0.528932 12.2117 6.75281 19.5839 12.2546 23.2763C15.44 25.414 20.0184 27.3929 22.7265 24.6846C24.6927 22.7187 25.4443 21.9177 25.4754 21.8845L25.9797 21.3462L19.2555 14.6218ZM21.6486 23.6067C19.5985 25.6566 15.5328 23.6403 13.104 22.0103C7.99854 18.5838 1.99782 11.566 1.55011 6.97409C1.44141 5.85968 1.69115 4.98886 2.29219 4.38623L4.57318 2.1463L9.16274 6.73605C6.83513 9.06009 6.13391 9.75278 5.57631 10.3048L5.87207 10.8146C6.77027 12.3619 8.85349 14.7408 10.4091 16.2964C12.1154 18.0027 13.8669 19.2074 15.6984 20.3538L16.1275 19.9207C17.0689 18.9708 18.4371 17.5991 19.2561 16.7786L23.852 21.3745C23.4263 21.8139 22.7152 22.5399 21.6486 23.6067Z" fill="#FF2054"/>
</svg>
